<svg width="186" height="110" viewBox="0 0 186 110" fill="none" xmlns="http://www.w3.org/2000/svg">
<rect x="0.5" y="0.5" width="185" height="109" rx="7.5" fill="white" stroke="#F4F6F9"/>
<rect x="13.5" y="11.5" width="34" height="10" rx="3.5" fill="#F4F6F9" stroke="#EAE9F0"/>
<rect x="13.5" y="27.5" width="34" height="10" rx="3.5" fill="#F4F6F9" stroke="#EAE9F0"/>
<rect x="13.5" y="43.5" width="34" height="10" rx="3.5" fill="#F4F6F9" stroke="#EAE9F0"/>
<rect x="13.5" y="59.5" width="34" height="10" rx="3.5" fill="#F4F6F9" stroke="#EAE9F0"/>
<rect x="13" y="87" width="35" height="11" rx="4" fill="#5C7DFA"/>
<rect x="13.5" y="87.5" width="34" height="10" rx="3.5" stroke="#0055E1" stroke-opacity="0.2" stroke-dasharray="4 4"/>
<rect x="61.5" y="27.5" width="110" height="73" rx="3.5" fill="white" stroke="#EAE9F0"/>
<rect x="0.5" y="-0.5" width="110" height="10" rx="3.5" transform="matrix(1 0 0 -1 61 21)" fill="#F4F6F9" stroke="#EAE9F0"/>
<rect width="29" height="5" rx="2.5" transform="matrix(1 0 0 -1 137 19)" fill="#5C7DFA"/>
</svg>
